<svg width="24" height="24" viewBox="0 0 24 24" fill="none" xmlns="http://www.w3.org/2000/svg">
<g clip-path="url(#clip0_1720_1086)">
<path d="M12 0C5.38317 0 0 5.38317 0 12C0 18.6167 5.38317 23.9999 12 23.9999C18.6167 23.9999 23.9999 18.6167 23.9999 12C23.9999 5.38317 18.6167 0 12 0ZM12 22.4999C6.21023 22.4999 1.5 17.7897 1.5 12C1.5 6.21023 6.21023 1.5 12 1.5C17.7897 1.5 22.4999 6.21023 22.4999 12C22.4999 17.7897 17.7897 22.4999 12 22.4999ZM14.4375 18.2647C14.4375 18.6789 14.1017 19.0147 13.6875 19.0147H10.3124C9.89817 19.0147 9.5624 18.6789 9.5624 18.2647C9.5624 17.8505 9.89817 17.5147 10.3124 17.5147H11.2492L11.2241 9.03033H10.3125C9.89822 9.03033 9.56245 8.69456 9.56245 8.28033C9.56245 7.86609 9.89822 7.53033 10.3125 7.53033H11.9718C12.3852 7.53033 12.7206 7.86478 12.7218 8.27808L12.7492 17.5147H13.6875C14.1017 17.5147 14.4375 17.8505 14.4375 18.2647ZM11.2306 5.73516C11.2306 5.32092 11.5664 4.98516 11.9806 4.98516H12.0193C12.4335 4.98516 12.7693 5.32092 12.7693 5.73516C12.7693 6.14939 12.4335 6.48516 12.0193 6.48516H11.9806C11.5664 6.48516 11.2306 6.14939 11.2306 5.73516Z" fill="black"/>
</g>
<defs>
<clipPath id="clip0_1720_1086">
<rect width="24" height="24" fill="white"/>
</clipPath>
</defs>
</svg>
