<svg width="23" height="24" viewBox="0 0 23 24" fill="none" xmlns="http://www.w3.org/2000/svg">
<path d="M19.8299 5.17385C18.0948 3.425 15.8048 2.33716 13.3547 2.09787C10.9046 1.85858 8.44786 2.48284 6.40808 3.86302C4.36829 5.24319 2.87329 7.2928 2.18079 9.65849C1.4883 12.0242 1.64171 14.5577 2.6146 16.8222C2.71599 17.0327 2.74927 17.2696 2.70977 17.5L1.77921 21.9793C1.74336 22.151 1.75068 22.329 1.80051 22.4972C1.85035 22.6654 1.94114 22.8186 2.06472 22.9429C2.16603 23.0436 2.28665 23.1228 2.41932 23.1756C2.55199 23.2283 2.69395 23.2537 2.83666 23.25H3.04815L7.57404 22.3393C7.80406 22.3116 8.03733 22.3445 8.2508 22.4346C10.5122 23.4089 13.0421 23.5625 15.4044 22.8691C17.7668 22.1756 19.8135 20.6785 21.1917 18.6358C22.57 16.5931 23.1933 14.1329 22.9544 11.6793C22.7154 9.22575 21.6291 6.93253 19.8828 5.19503L19.8299 5.17385ZM8.12391 13.7195C7.91477 13.7195 7.71032 13.6574 7.53642 13.5411C7.36253 13.4247 7.22699 13.2593 7.14695 13.0658C7.06692 12.8723 7.04598 12.6594 7.08678 12.454C7.12758 12.2486 7.22829 12.0599 7.37618 11.9118C7.52407 11.7637 7.71249 11.6628 7.91761 11.622C8.12274 11.5811 8.33536 11.6021 8.52858 11.6822C8.7218 11.7624 8.88695 11.8981 9.00315 12.0723C9.11934 12.2464 9.18136 12.4511 9.18136 12.6606C9.18136 12.9414 9.06995 13.2108 8.87164 13.4094C8.67333 13.608 8.40436 13.7195 8.12391 13.7195ZM12.3537 13.7195C12.1446 13.7195 11.9401 13.6574 11.7662 13.5411C11.5923 13.4247 11.4568 13.2593 11.3768 13.0658C11.2967 12.8723 11.2758 12.6594 11.3166 12.454C11.3574 12.2486 11.4581 12.0599 11.606 11.9118C11.7539 11.7637 11.9423 11.6628 12.1474 11.622C12.3525 11.5811 12.5652 11.6021 12.7584 11.6822C12.9516 11.7624 13.1168 11.8981 13.2329 12.0723C13.3491 12.2464 13.4112 12.4511 13.4112 12.6606C13.4112 12.9414 13.2998 13.2108 13.1014 13.4094C12.9031 13.608 12.6342 13.7195 12.3537 13.7195ZM16.5835 13.7195C16.3744 13.7195 16.1699 13.6574 15.996 13.5411C15.8221 13.4247 15.6866 13.2593 15.6066 13.0658C15.5265 12.8723 15.5056 12.6594 15.5464 12.454C15.5872 12.2486 15.6879 12.0599 15.8358 11.9118C15.9837 11.7637 16.1721 11.6628 16.3772 11.622C16.5823 11.5811 16.795 11.6021 16.9882 11.6822C17.1814 11.7624 17.3466 11.8981 17.4628 12.0723C17.5789 12.2464 17.641 12.4511 17.641 12.6606C17.641 12.9414 17.5296 13.2108 17.3312 13.4094C17.1329 13.608 16.864 13.7195 16.5835 13.7195Z" fill="#036666"/>
</svg>
