<svg width="17" height="21" viewBox="0 0 17 21" fill="none" xmlns="http://www.w3.org/2000/svg">
<g clip-path="url(#clip0_1344_1323)">
<g clip-path="url(#clip1_1344_1323)">
<path d="M15.4993 2.92139H14.488V4.55328C14.488 4.72146 14.4325 4.88276 14.3337 5.00169C14.2349 5.12062 14.101 5.18743 13.9613 5.18743C13.8216 5.18743 13.6876 5.12062 13.5888 5.00169C13.4901 4.88276 13.4346 4.72146 13.4346 4.55328V2.92139H8.77846V4.55328C8.77846 4.72146 8.72297 4.88276 8.6242 5.00169C8.52542 5.12062 8.39145 5.18743 8.25176 5.18743C8.11206 5.18743 7.97809 5.12062 7.87932 5.00169C7.78054 4.88276 7.72505 4.72146 7.72505 4.55328V2.92139H3.07949V4.55328C3.07949 4.72146 3.02399 4.88276 2.92522 5.00169C2.82644 5.12062 2.69247 5.18743 2.55278 5.18743C2.41309 5.18743 2.27912 5.12062 2.18034 5.00169C2.08156 4.88276 2.02607 4.72146 2.02607 4.55328V2.92139H1.00074C0.735331 2.92139 0.480787 3.04834 0.293111 3.2743C0.105435 3.50026 0 3.80673 0 4.12628L0 19.2867C0.000925416 19.6059 0.106658 19.9118 0.294134 20.1375C0.48161 20.3632 0.735616 20.4905 1.00074 20.4916H15.4993C15.6307 20.4916 15.7608 20.4604 15.8822 20.3999C16.0036 20.3393 16.114 20.2506 16.2069 20.1387C16.2998 20.0268 16.3735 19.894 16.4238 19.7478C16.4741 19.6016 16.5 19.445 16.5 19.2867V4.13474C16.5014 3.97564 16.4765 3.8178 16.4268 3.67039C16.3771 3.52297 16.3035 3.38892 16.2104 3.27603C16.1173 3.16313 16.0065 3.07364 15.8844 3.01276C15.7623 2.95188 15.6314 2.92083 15.4993 2.92139ZM12.8587 8.80209L7.28964 15.5156C7.24089 15.5747 7.18289 15.6216 7.11901 15.6535C7.05512 15.6855 6.9866 15.7018 6.91743 15.7017C6.77786 15.701 6.64412 15.6342 6.54522 15.5156L3.64131 12.0194C3.5463 11.899 3.49418 11.7387 3.49608 11.5728C3.49798 11.4068 3.55376 11.2483 3.65149 11.1312C3.74921 11.0141 3.88112 10.9476 4.01899 10.9461C4.15687 10.9446 4.28975 11.0081 4.38923 11.1231L6.91743 14.167L12.1143 7.91428C12.2141 7.80226 12.3462 7.74128 12.4826 7.74418C12.6191 7.74708 12.7493 7.81363 12.8458 7.92982C12.9423 8.04601 12.9976 8.20276 13 8.36704C13.0024 8.53133 12.9517 8.69033 12.8587 8.81055V8.80209Z" fill="#036666"/>
<path d="M3.07948 0.634306V2.92148H2.02606V0.625851C2.02606 0.542573 2.03969 0.46011 2.06616 0.383171C2.09262 0.306233 2.13142 0.236324 2.18033 0.177438C2.22924 0.118551 2.2873 0.0718402 2.35121 0.0399711C2.41511 0.00810204 2.4836 -0.00830077 2.55277 -0.00830077C2.62194 -0.00830077 2.69043 0.00810204 2.75433 0.0399711C2.81824 0.0718402 2.8763 0.118551 2.92521 0.177438C2.97412 0.236324 3.01291 0.306233 3.03938 0.383171C3.06585 0.46011 3.07948 0.542573 3.07948 0.625851V0.634306ZM8.77846 0.634306V2.92148H7.72504V0.625851C7.72504 0.542573 7.73866 0.46011 7.76513 0.383171C7.7916 0.306233 7.8304 0.236324 7.87931 0.177438C7.92822 0.118551 7.98628 0.0718402 8.05019 0.0399711C8.11409 0.00810203 8.18258 -0.00830078 8.25175 -0.00830078C8.32092 -0.00830078 8.38941 0.00810203 8.45331 0.0399711C8.51721 0.0718402 8.57528 0.118551 8.62419 0.177438C8.6731 0.236324 8.71189 0.306233 8.73836 0.383171C8.76483 0.46011 8.77846 0.542573 8.77846 0.625851V0.634306ZM14.488 0.634306V2.92148H13.4346V0.625851C13.4346 0.457663 13.49 0.296364 13.5888 0.177438C13.6876 0.0585114 13.8216 -0.00830075 13.9613 -0.00830075C14.101 -0.00830075 14.2349 0.0585114 14.3337 0.177438C14.4325 0.296364 14.488 0.457663 14.488 0.625851V0.634306Z" fill="#036666"/>
</g>
</g>
<defs>
<clipPath id="clip0_1344_1323">
<rect width="16.5" height="20.5" fill="white"/>
</clipPath>
<clipPath id="clip1_1344_1323">
<rect width="16.5" height="20.5" fill="white"/>
</clipPath>
</defs>
</svg>
