<svg width="24" height="24" viewBox="0 0 24 24" fill="none" xmlns="http://www.w3.org/2000/svg">
<path d="M12.3076 21.51C17.6261 21.51 21.9376 17.1985 21.9376 11.88C21.9376 6.56151 17.6261 2.25 12.3076 2.25C6.98909 2.25 2.67759 6.56151 2.67759 11.88C2.67759 13.5552 3.10531 15.1304 3.85752 16.5026C3.92476 16.6252 3.93764 16.7709 3.88886 16.902L2.07093 21.7864C1.99016 22.0033 2.19157 22.2195 2.41376 22.1543L7.84698 20.5586C7.96034 20.5254 8.08186 20.5365 8.18864 20.5871C9.43743 21.1789 10.8339 21.51 12.3076 21.51Z" stroke="black" stroke-width="1.5"/>
<path d="M8.0625 13.125C8.68382 13.125 9.1875 12.6213 9.1875 12C9.1875 11.3787 8.68382 10.875 8.0625 10.875C7.44118 10.875 6.9375 11.3787 6.9375 12C6.9375 12.6213 7.44118 13.125 8.0625 13.125Z" fill="black"/>
<path d="M12.375 13.125C12.9963 13.125 13.5 12.6213 13.5 12C13.5 11.3787 12.9963 10.875 12.375 10.875C11.7537 10.875 11.25 11.3787 11.25 12C11.25 12.6213 11.7537 13.125 12.375 13.125Z" fill="black"/>
<path d="M16.875 13.125C17.4963 13.125 18 12.6213 18 12C18 11.3787 17.4963 10.875 16.875 10.875C16.2537 10.875 15.75 11.3787 15.75 12C15.75 12.6213 16.2537 13.125 16.875 13.125Z" fill="black"/>
</svg>
