<svg width="34" height="30" viewBox="0 0 34 30" fill="none" xmlns="http://www.w3.org/2000/svg">
<path d="M32.007 15.038C30.5962 14.255 28.7249 14.8165 27.9893 16.2547C27.5619 17.0498 27.5579 17.9316 27.8665 18.7096C22.6606 20.9453 19.4991 19.5305 19.8016 11.0223C21.3884 11.1175 22.9775 9.95108 22.98 7.86864C22.9912 6.86478 22.3338 5.98003 21.4303 5.52153C21.4066 5.50786 21.4066 5.50786 21.3829 5.49419C21.3829 5.49419 21.3592 5.48052 21.3356 5.46685C20.4731 4.93731 19.4155 4.80032 18.5281 5.29833C16.7259 6.3417 16.5102 8.30109 17.3862 9.62772C10.1691 14.1437 7.36306 12.1132 6.69623 6.48698C7.52432 6.36517 8.29969 5.89719 8.76087 5.15309C9.61488 3.78329 9.18915 1.89566 7.80568 1.06534C6.37485 0.207677 4.55826 0.674414 3.72428 2.11892C2.91764 3.51606 3.38437 5.33265 4.8052 6.15296C4.89992 6.20765 5.01832 6.27601 5.12671 6.30701L0.601517 16.3871C0.235058 17.1859 0.546303 18.1233 1.30408 18.5608L10.7052 23.9886L20.1063 29.4163C20.8641 29.8538 21.8316 29.6546 22.3401 28.9379L28.8071 19.9789C28.8881 20.0573 28.9829 20.1119 29.1013 20.1803C30.4984 20.9869 32.315 20.5202 33.1353 19.0994C33.9693 17.6549 33.4415 15.8346 32.007 15.038Z" fill="#FFD700"/>
</svg>
