<svg width="25" height="24" viewBox="0 0 25 24" fill="none" xmlns="http://www.w3.org/2000/svg">
<g clip-path="url(#clip0_1133_936)">
<path d="M13.8037 0.0450168C10.4287 -0.213733 7.61999 0.648767 5.88749 2.48252C4.67624 3.76127 4.05374 5.49002 4.05374 7.53002C4.05374 8.01377 4.09124 8.51627 4.15874 9.03002C4.18124 9.20252 4.15499 9.36377 4.09124 9.51002L2.19749 13.4663C2.03624 13.7325 2.02874 14.0475 2.18249 14.3138C2.33624 14.5875 2.62499 14.7563 2.94374 14.7638L3.75749 14.8538V17.3363C3.75749 18.3825 4.65374 19.2375 5.75249 19.2375H8.18999L7.83749 23.6063C7.82999 23.7075 7.86374 23.805 7.93124 23.8838C8.00249 23.955 8.09999 24 8.20124 24H17.325C17.4412 24 17.5537 23.94 17.625 23.8425C17.6887 23.745 17.7075 23.6213 17.6662 23.5088C17.6512 23.4675 16.2187 19.4438 19.0912 16.8788C21.81 14.4488 23.13 12.0563 23.13 9.56627C23.1262 5.50877 20.6887 0.581267 13.8037 0.0450168ZM8.86124 13.9988C8.79374 13.9988 8.72249 13.9763 8.66249 13.9388C8.51624 13.8413 8.45999 13.6538 8.52374 13.4963L10.1137 9.64502H8.98499C8.86124 9.64502 8.74874 9.58502 8.68124 9.48002C8.61749 9.37877 8.60624 9.24752 8.65499 9.13502L10.9275 3.96752C10.9875 3.83252 11.115 3.75002 11.2612 3.75002H14.3212C14.445 3.75002 14.5575 3.81002 14.625 3.91877C14.6887 4.02002 14.7 4.15127 14.6512 4.26377L13.545 6.74627H15.0825C15.2287 6.74627 15.36 6.83252 15.4162 6.96752C15.4762 7.09877 15.4462 7.25627 15.3487 7.36127L9.11999 13.8863C9.05624 13.9575 8.96249 13.9988 8.86124 13.9988ZM16.6012 13.815L12.2362 18.3863C12.1687 18.4613 12.0712 18.4988 11.9737 18.4988C11.9062 18.4988 11.835 18.48 11.7787 18.4388C11.6287 18.345 11.5725 18.1575 11.64 17.9963L12.69 15.45H12.06C11.9362 15.45 11.8237 15.39 11.7562 15.2813C11.6925 15.18 11.6812 15.0488 11.73 14.9363L13.3237 11.3138C13.3837 11.1825 13.5112 11.1 13.6537 11.1H15.8025C15.9225 11.1 16.0387 11.16 16.1025 11.265C16.17 11.37 16.1812 11.4975 16.1325 11.61L15.4275 13.2H16.335C16.4812 13.2 16.6125 13.2863 16.6687 13.4213C16.7325 13.5563 16.7025 13.71 16.6012 13.815Z" fill="#036666"/>
<path d="M12.6825 7.30504C12.6188 7.20379 12.6075 7.07254 12.6563 6.96004L13.7625 4.47754H11.4975L9.54001 8.91754H10.6538C10.7775 8.91754 10.89 8.97754 10.9575 9.08254C11.0213 9.18004 11.0363 9.31129 10.9913 9.42004L9.93751 11.9813L14.2388 7.47754H12.9863C12.8663 7.47379 12.7538 7.41004 12.6825 7.30504ZM14.565 13.7625C14.4975 13.6575 14.4863 13.5263 14.535 13.4138L15.2438 11.8275H13.8938L12.6188 14.7225H13.2338C13.3538 14.7225 13.4663 14.7825 13.5338 14.8838C13.6013 14.985 13.6125 15.1125 13.5675 15.225L13.05 16.4813L15.4875 13.9238H14.8688C14.745 13.9275 14.6288 13.8675 14.565 13.7625Z" fill="#036666"/>
</g>
<defs>
<clipPath id="clip0_1133_936">
<rect width="24" height="24" fill="white" transform="translate(0.600006)"/>
</clipPath>
</defs>
</svg>
