<svg width="24" height="24" viewBox="0 0 17 24" fill="none" xmlns="http://www.w3.org/2000/svg">
<path fill-rule="evenodd" clip-rule="evenodd" d="M11.6 1.875H9.34998V1.5C9.34998 1.086 9.01248 0.75 8.59998 0.75C8.18748 0.75 7.84998 1.086 7.84998 1.5V1.875H5.59998V1.5C5.59998 1.086 5.26248 0.75 4.84998 0.75C4.43748 0.75 4.09998 1.086 4.09998 1.5V1.875H3.34998C2.55498 1.875 1.79001 2.19113 1.22751 2.75363C0.665009 3.3165 0.349976 4.07962 0.349976 4.87537C0.349976 8.82788 0.349979 16.8713 0.353729 19.7509C0.353729 21.2816 1.44124 22.5728 2.89999 22.8008C4.80124 23.0921 6.69873 23.25 8.59998 23.25C8.89998 23.25 9.19994 23.2463 9.49994 23.2388L9.54874 23.2369C11.135 23.1937 12.7175 23.0438 14.3 22.8011C15.7587 22.5731 16.8462 21.2816 16.8462 19.7505C16.8462 18.8381 16.85 17.406 16.85 15.75V15.6578C16.85 13.7933 16.8462 8.0835 16.8462 4.87463C16.8462 3.21788 15.5037 1.87538 13.8462 1.87538H13.1V1.5C13.1 1.086 12.7625 0.75 12.35 0.75C11.9375 0.75 11.6 1.086 11.6 1.5V1.875ZM15.3462 18.1208L12.0013 21.5794C12.6913 21.5119 13.3813 21.4245 14.0713 21.3187C14.81 21.2021 15.3462 20.5297 15.3462 19.7505V18.1208ZM13.955 17.4053C13.3437 17.4668 12.7362 17.5421 12.1287 17.631C11.3937 17.7412 10.85 18.372 10.85 19.1145V20.613L13.955 17.4053ZM4.84998 17.25H7.84998C8.26248 17.25 8.59998 16.914 8.59998 16.5C8.59998 16.086 8.26248 15.75 7.84998 15.75H4.84998C4.43748 15.75 4.09998 16.086 4.09998 16.5C4.09998 16.914 4.43748 17.25 4.84998 17.25ZM4.84998 14.25H12.35C12.7625 14.25 13.1 13.914 13.1 13.5C13.1 13.086 12.7625 12.75 12.35 12.75H4.84998C4.43748 12.75 4.09998 13.086 4.09998 13.5C4.09998 13.914 4.43748 14.25 4.84998 14.25ZM4.84998 11.25H12.35C12.7625 11.25 13.1 10.914 13.1 10.5C13.1 10.086 12.7625 9.75 12.35 9.75H4.84998C4.43748 9.75 4.09998 10.086 4.09998 10.5C4.09998 10.914 4.43748 11.25 4.84998 11.25ZM4.84998 8.25H12.35C12.7625 8.25 13.1 7.914 13.1 7.5C13.1 7.086 12.7625 6.75 12.35 6.75H4.84998C4.43748 6.75 4.09998 7.086 4.09998 7.5C4.09998 7.914 4.43748 8.25 4.84998 8.25Z" fill="black" fill-opacity="0.4"/>
</svg>
