<svg width="28" height="39" viewBox="0 0 28 39" fill="none" xmlns="http://www.w3.org/2000/svg">
<path fill-rule="evenodd" clip-rule="evenodd" d="M19 2.625H15.25V2C15.25 1.31 14.6875 0.75 14 0.75C13.3125 0.75 12.75 1.31 12.75 2V2.625H9V2C9 1.31 8.4375 0.75 7.75 0.75C7.0625 0.75 6.5 1.31 6.5 2V2.625H5.25C3.925 2.625 2.65005 3.15188 1.71255 4.08938C0.775055 5.0275 0.25 6.29937 0.25 7.62562C0.25 14.2131 0.250006 27.6187 0.256256 32.4181C0.256256 34.9694 2.06878 37.1213 4.50003 37.5013C7.66878 37.9869 10.8313 38.25 14 38.25C14.5 38.25 14.9999 38.2438 15.4999 38.2313L15.5813 38.2281C18.225 38.1562 20.8625 37.9062 23.5 37.5019C25.9312 37.1219 27.7437 34.9694 27.7437 32.4175C27.7437 30.8969 27.75 28.51 27.75 25.75V25.5963C27.75 22.4888 27.7437 12.9725 27.7437 7.62438C27.7437 4.86313 25.5062 2.62563 22.7437 2.62563H21.5V2C21.5 1.31 20.9375 0.75 20.25 0.75C19.5625 0.75 19 1.31 19 2V2.625ZM25.2437 29.7012L19.6688 35.4656C20.8188 35.3531 21.9688 35.2075 23.1188 35.0312C24.3501 34.8369 25.2437 33.7163 25.2437 32.4175V29.7012ZM22.925 28.5088C21.9063 28.6113 20.8937 28.7369 19.8812 28.885C18.6562 29.0687 17.75 30.12 17.75 31.3575V33.855L22.925 28.5088ZM7.75 28.25H12.75C13.4375 28.25 14 27.69 14 27C14 26.31 13.4375 25.75 12.75 25.75H7.75C7.0625 25.75 6.5 26.31 6.5 27C6.5 27.69 7.0625 28.25 7.75 28.25ZM7.75 23.25H20.25C20.9375 23.25 21.5 22.69 21.5 22C21.5 21.31 20.9375 20.75 20.25 20.75H7.75C7.0625 20.75 6.5 21.31 6.5 22C6.5 22.69 7.0625 23.25 7.75 23.25ZM7.75 18.25H20.25C20.9375 18.25 21.5 17.69 21.5 17C21.5 16.31 20.9375 15.75 20.25 15.75H7.75C7.0625 15.75 6.5 16.31 6.5 17C6.5 17.69 7.0625 18.25 7.75 18.25ZM7.75 13.25H20.25C20.9375 13.25 21.5 12.69 21.5 12C21.5 11.31 20.9375 10.75 20.25 10.75H7.75C7.0625 10.75 6.5 11.31 6.5 12C6.5 12.69 7.0625 13.25 7.75 13.25Z" fill="black" fill-opacity="0.4"/>
</svg>
