<svg width="25" height="24" viewBox="0 0 25 24" fill="none" xmlns="http://www.w3.org/2000/svg">
<path d="M17.225 17.1749C17.3 17.1936 17.3375 17.2124 17.3938 17.2124C17.5625 17.2124 17.6563 17.1374 17.7125 17.0811C17.7688 17.0249 17.8438 16.9124 17.8438 16.7436C17.825 14.9061 18.9875 13.3124 20.7313 12.7686C20.7688 12.7499 20.825 12.7311 20.8625 12.6936C20.9938 12.5999 21.0313 12.4686 21.05 12.3936C21.0688 12.2999 21.05 12.1686 20.9563 12.0374C19.8688 10.5749 19.8688 8.60613 20.9563 7.14363L21.0125 7.06863C21.0125 7.04988 21.0313 7.03113 21.0313 7.01238C21.0875 6.86238 21.0313 6.73113 20.9938 6.65613C20.9563 6.58113 20.8813 6.46863 20.7125 6.43113C18.9875 5.88738 17.825 4.29363 17.8438 2.47488C17.8438 2.39988 17.8438 2.36238 17.825 2.30613C17.7688 2.15613 17.675 2.08113 17.5813 2.04363C17.5063 2.00613 17.375 1.96863 17.225 2.02488C16.7938 2.17488 16.3438 2.24988 15.9125 2.24988C14.5813 2.24988 13.325 1.61238 12.5563 0.524883C12.5188 0.487383 12.4813 0.449883 12.4438 0.412383C12.2375 0.262383 11.9375 0.318633 11.7875 0.524883C11.0188 1.61238 9.76254 2.24988 8.45004 2.24988C8.00004 2.24988 7.55004 2.17488 7.13754 2.02488C7.08129 2.00613 7.04379 2.00613 6.98754 2.00613C6.83754 2.00613 6.72504 2.08113 6.66879 2.13738C6.61254 2.19363 6.53754 2.30613 6.53754 2.47488C6.55629 4.29363 5.39379 5.88738 3.65004 6.43113C3.59379 6.44988 3.55629 6.46863 3.50004 6.50613C3.29379 6.65613 3.25629 6.95613 3.40629 7.16238C4.49379 8.62488 4.49379 10.5936 3.40629 12.0561C3.36879 12.0936 3.35004 12.1499 3.33129 12.1874C3.27504 12.3374 3.33129 12.4686 3.36879 12.5436C3.40629 12.6186 3.50004 12.7311 3.65004 12.7686C5.39379 13.3311 6.53754 14.9249 6.51879 16.7249C6.51879 16.7811 6.51879 16.8374 6.53754 16.8936C6.59379 17.0436 6.68754 17.1186 6.78129 17.1561C6.85629 17.1936 6.98754 17.2311 7.13754 17.1749C7.58754 17.0249 8.03754 16.9499 8.46879 16.9499C9.78129 16.9499 11.0188 17.5686 11.8063 18.6749C11.8438 18.7124 11.8813 18.7499 11.9188 18.7874C12.05 18.8811 12.1813 18.8811 12.275 18.8624C12.3688 18.8436 12.4813 18.8061 12.575 18.6749C13.625 17.1936 15.5 16.5936 17.225 17.1749ZM12.425 14.1374C12.3313 14.3624 12.0125 14.3624 11.9188 14.1374C11.0563 12.1874 9.51879 10.6499 7.64379 9.82488C7.41879 9.73113 7.41879 9.41238 7.64379 9.31863C9.57504 8.49363 11.1125 6.97488 11.9375 5.04363C12.0313 4.81863 12.35 4.81863 12.4438 5.04363C13.2688 6.97488 14.8063 8.51238 16.7375 9.31863C16.9625 9.41238 16.9625 9.73113 16.7375 9.82488C14.8063 10.7061 13.25 12.2624 12.425 14.1374Z" fill="black" fill-opacity="0.4"/>
<path d="M7.47507 18.1876C7.10007 18.3188 6.70632 18.2813 6.33132 18.1313L6.29382 18.1126C5.93757 17.9251 5.65632 17.6251 5.52507 17.2501C5.48757 17.0626 5.45007 16.8751 5.46882 16.6876C5.46882 15.9563 5.22507 15.2813 4.79382 14.7563L1.04382 20.5126H4.38132L5.93757 23.7001L9.51882 18.1876C9.20007 18.0751 8.84382 18.0001 8.48757 18.0001C8.15007 18.0188 7.81257 18.0751 7.47507 18.1876ZM19.6063 14.7563C19.1563 15.3001 18.9126 15.9751 18.9313 16.7251C18.9313 17.1376 18.7813 17.5313 18.4813 17.8126C18.2188 18.0751 17.8438 18.2438 17.4688 18.2626C17.2813 18.2813 17.0751 18.2438 16.8688 18.1688C16.2126 17.9438 15.5188 17.9626 14.8813 18.1876L18.4813 23.7001L20.0376 20.5126H23.3751L19.6063 14.7563Z" fill="black" fill-opacity="0.4"/>
</svg>
