<svg width="12" height="22" viewBox="0 0 12 22" fill="none" xmlns="http://www.w3.org/2000/svg">
<path d="M6 21.5C4.60761 21.5 3.27226 20.9469 2.28769 19.9623C1.30312 18.9777 0.75 17.6424 0.75 16.25V4.25C0.75 4.05109 0.829018 3.86032 0.96967 3.71967C1.11032 3.57902 1.30109 3.5 1.5 3.5C1.69891 3.5 1.88968 3.57902 2.03033 3.71967C2.17098 3.86032 2.25 4.05109 2.25 4.25V16.25C2.25 17.2446 2.64509 18.1984 3.34835 18.9016C4.05161 19.6049 5.00544 20 6 20C6.99456 20 7.94839 19.6049 8.65165 18.9016C9.35491 18.1984 9.75 17.2446 9.75 16.25V4.25C9.75 3.65326 9.51295 3.08097 9.09099 2.65901C8.66903 2.23705 8.09674 2 7.5 2C6.90326 2 6.33097 2.23705 5.90901 2.65901C5.48705 3.08097 5.25 3.65326 5.25 4.25V16.25C5.25 16.4489 5.32902 16.6397 5.46967 16.7803C5.61032 16.921 5.80109 17 6 17C6.19891 17 6.38968 16.921 6.53033 16.7803C6.67098 16.6397 6.75 16.4489 6.75 16.25V4.25C6.75 4.05109 6.82902 3.86032 6.96967 3.71967C7.11032 3.57902 7.30109 3.5 7.5 3.5C7.69891 3.5 7.88968 3.57902 8.03033 3.71967C8.17098 3.86032 8.25 4.05109 8.25 4.25V16.25C8.25 16.8467 8.01295 17.419 7.59099 17.841C7.16903 18.2629 6.59674 18.5 6 18.5C5.40326 18.5 4.83097 18.2629 4.40901 17.841C3.98705 17.419 3.75 16.8467 3.75 16.25V4.25C3.75 3.25544 4.14509 2.30161 4.84835 1.59835C5.55161 0.895088 6.50544 0.5 7.5 0.5C8.49456 0.5 9.44839 0.895088 10.1517 1.59835C10.8549 2.30161 11.25 3.25544 11.25 4.25V16.25C11.25 17.6424 10.6969 18.9777 9.71231 19.9623C8.72774 20.9469 7.39239 21.5 6 21.5Z" fill="black"/>
</svg>
