<svg width="30" height="30" viewBox="0 0 30 30" fill="none" xmlns="http://www.w3.org/2000/svg">
<g clip-path="url(#clip0_1733_1084)">
<path fill-rule="evenodd" clip-rule="evenodd" d="M25.3125 16.875C25.3125 16.6264 25.2137 16.3879 25.0379 16.2121C24.8621 16.0363 24.6236 15.9375 24.375 15.9375H5.625C5.37636 15.9375 5.1379 16.0363 4.96209 16.2121C4.78627 16.3879 4.6875 16.6264 4.6875 16.875V27.1875C4.68725 27.5569 4.75983 27.9227 4.90109 28.2641C5.04234 28.6054 5.2495 28.9156 5.51071 29.1768C5.77193 29.438 6.08207 29.6452 6.42341 29.7864C6.76475 29.9277 7.13059 30.0002 7.5 30H22.5C23.2463 30 23.9625 29.7028 24.4875 29.175C25.0153 28.6491 25.3125 27.9328 25.3125 27.1875V16.875ZM25.3125 2.8125C25.3125 2.06625 25.0163 1.35094 24.4884 0.824063C24.2275 0.562714 23.9175 0.355403 23.5763 0.213999C23.2351 0.0725955 22.8693 -0.000125218 22.5 1.61853e-07H7.5C6.75375 1.61853e-07 6.03844 0.29625 5.51156 0.824063C5.25021 1.08504 5.0429 1.39501 4.9015 1.73621C4.7601 2.07741 4.68737 2.44316 4.6875 2.8125V11.25C4.6875 11.9963 4.98375 12.7116 5.51156 13.2384C5.77254 13.4998 6.08251 13.7071 6.42371 13.8485C6.76491 13.9899 7.13066 14.0626 7.5 14.0625H22.5C23.2463 14.0625 23.9616 13.7663 24.4884 13.2384C24.7498 12.9775 24.9571 12.6675 25.0985 12.3263C25.2399 11.9851 25.3126 11.6193 25.3125 11.25V2.8125ZM11.25 3.75C10.5167 3.76894 9.8197 4.07356 9.30771 4.59894C8.79572 5.12433 8.50919 5.82891 8.50919 6.5625C8.50919 7.29609 8.79572 8.00067 9.30771 8.52606C9.8197 9.05144 10.5167 9.35606 11.25 9.375C11.9833 9.35606 12.6803 9.05144 13.1923 8.52606C13.7043 8.00067 13.9908 7.29609 13.9908 6.5625C13.9908 5.82891 13.7043 5.12433 13.1923 4.59894C12.6803 4.07356 11.9833 3.76894 11.25 3.75ZM18.75 3.75C18.0167 3.76894 17.3197 4.07356 16.8077 4.59894C16.2957 5.12433 16.0092 5.82891 16.0092 6.5625C16.0092 7.29609 16.2957 8.00067 16.8077 8.52606C17.3197 9.05144 18.0167 9.35606 18.75 9.375C19.4833 9.35606 20.1803 9.05144 20.6923 8.52606C21.2043 8.00067 21.4908 7.29609 21.4908 6.5625C21.4908 5.82891 21.2043 5.12433 20.6923 4.59894C20.1803 4.07356 19.4833 3.76894 18.75 3.75ZM27.0272 15.9375H27.1875C27.9338 15.9375 28.6491 16.2337 29.1759 16.7616C29.7038 17.2884 30 18.0037 30 18.75V24.375C30 25.1213 29.7038 25.8366 29.1759 26.3634C28.915 26.6248 28.605 26.8321 28.2638 26.9735C27.9226 27.1149 27.5568 27.1876 27.1875 27.1875V16.875C27.1875 16.5459 27.1313 16.2309 27.0272 15.9375ZM2.97281 15.9375H2.8125C2.06625 15.9375 1.35094 16.2337 0.824063 16.7616C0.562714 17.0225 0.355403 17.3325 0.213999 17.6737C0.0725955 18.0149 -0.000125218 18.3807 1.61853e-07 18.75V24.375C1.61853e-07 25.1213 0.29625 25.8366 0.824063 26.3634C1.08504 26.6248 1.39501 26.8321 1.73621 26.9735C2.07741 27.1149 2.44316 27.1876 2.8125 27.1875V16.875C2.8125 16.5459 2.86875 16.2309 2.97281 15.9375Z" fill="#036666"/>
</g>
<defs>
<clipPath id="clip0_1733_1084">
<rect width="30" height="30" fill="white"/>
</clipPath>
</defs>
</svg>
